HIERARCHY
ROOT Hips
{
	OFFSET 0.000000 0.000000 0.000000
	CHANNELS 6 Xposition Yposition Zposition Zrotation Yrotation Xrotation 
	JOINT LowerBack
	{
		OFFSET 0.000000 0.000000 0.000000
		CHANNELS 3 Zrotation Yrotation Xrotation
		JOINT Spine
		{
			OFFSET 0.028270 2.035590 -0.193380
			CHANNELS 3 Zrotation Yrotation Xrotation
			JOINT Spine1
			{
				OFFSET 0.056720 2.048850 -0.042750
				CHANNELS 3 Zrotation Yrotation Xrotation
				JOINT Neck
				{
					OFFSET 0.000000 0.000000 0.000000
					CHANNELS 3 Zrotation Yrotation Xrotation
					JOINT Neck1
					{
						OFFSET -0.054170 1.746240 0.172020
						CHANNELS 3 Zrotation Yrotation Xrotation
						JOINT Head
						{
							OFFSET 0.104070 1.761360 -0.123970
							CHANNELS 3 Zrotation Yrotation Xrotation
							End Site
							{
								OFFSET 0.000000 0.000000 0.000000
							}
						}
					}
				}
				JOINT LeftShoulder
				{
					OFFSET 0.000000 0.000000 0.000000
					CHANNELS 3 Zrotation Yrotation Xrotation
					JOINT LeftArm
					{
						OFFSET 3.362410 1.200890 -0.311210
						CHANNELS 3 Zrotation Yrotation Xrotation
						JOINT LeftForeArm
						{
							OFFSET 4.983000 -0.000000 -0.000000
							CHANNELS 3 Zrotation Yrotation Xrotation
							JOINT LeftHand
							{
								OFFSET 3.483560 -0.000000 -0.000000
								CHANNELS 3 Zrotation Yrotation Xrotation
								JOINT LeftFingerBase
								{
									OFFSET 0.000000 0.000000 0.000000
									CHANNELS 3 Zrotation Yrotation Xrotation
									JOINT LeftHandIndex1
									{
										OFFSET 0.715260 -0.000000 -0.000000
										CHANNELS 3 Zrotation Yrotation Xrotation
										End Site
										{
											OFFSET 0.000000 0.000000 0.000000
										}
									}
								}
								JOINT LThumb
								{
									OFFSET 0.000000 0.000000 0.000000
									CHANNELS 3 Zrotation Yrotation Xrotation
									End Site
									{
										OFFSET 0.000000 0.000000 0.000000
									}
								}
							}
						}
					}
				}
				JOINT RightShoulder
				{
					OFFSET 0.000000 0.000000 0.000000
					CHANNELS 3 Zrotation Yrotation Xrotation
					JOINT RightArm
					{
						OFFSET -3.136600 1.374050 -0.404650
						CHANNELS 3 Zrotation Yrotation Xrotation
						JOINT RightForeArm
						{
							OFFSET -5.241900 -0.000000 -0.000000
							CHANNELS 3 Zrotation Yrotation Xrotation
							JOINT RightHand
							{
								OFFSET -3.444170 -0.000000 -0.000000
								CHANNELS 3 Zrotation Yrotation Xrotation
								JOINT RightFingerBase
								{
									OFFSET 0.000000 0.000000 0.000000
									CHANNELS 3 Zrotation Yrotation Xrotation
									JOINT RightHandIndex1
									{
										OFFSET -0.622530 -0.000000 -0.000000
										CHANNELS 3 Zrotation Yrotation Xrotation
										End Site
										{
											OFFSET 0.000000 0.000000 0.000000
										}
									}
								}
								JOINT RThumb
								{
									OFFSET 0.000000 0.000000 0.000000
									CHANNELS 3 Zrotation Yrotation Xrotation
									End Site
									{
										OFFSET 0.000000 0.000000 0.000000
									}
								}
							}
						}
					}
				}
			}
		}
	}
}
}
MOTION
Frames: 12
Frame Time: 0.008333
3.218570 17.094968 1.454556 9.221085 29.458145 23.864967 4.222842 -4.803347 -5.282643 0.490391 -5.319188 -3.560586 -6.341366 -5.329288 1.352348 7.332081 -16.642397 -8.536028 -4.089955 -0.302763 -0.231905 0.000000 0.000000 0.000000 3.890569 4.444932 1.002878 -40.137996 -11.765990 1.813118 -0.213906 -88.365956 -0.062791 9.362616 1.521751 0.098520 -0.238329 0.386359 -0.000000 0.000000 0.000000 0.000000 0.000000 0.000000 0.000000 15.873960 -14.202267 -0.520619 66.649831 -0.137001 17.731097 0.337547 80.781221 0.015226 3.858297 -1.160760 -0.031706 -0.014330 -0.198454 -0.000000 0.000000 0.000000 0.000000 0.000000 0.000000 0.000000 
3.305791 17.065719 1.578086 9.563799 29.496938 24.231723 4.433942 -4.888713 -5.661457 0.566308 -5.434515 -3.635321 -6.270298 -5.450851 1.370300 7.090586 -16.871752 -8.681303 -4.115453 -0.303715 -0.272554 0.000000 0.000000 0.000000 3.606610 4.375331 1.006911 -40.652883 -11.535007 1.968035 -0.221851 -88.595530 -0.062197 9.292708 1.516480 0.097406 -0.238029 0.386794 -0.000000 0.000000 0.000000 0.000000 0.000000 0.000000 0.000000 15.790042 -14.435843 -0.497782 66.358019 -0.322716 17.330582 0.344579 80.714944 0.015063 3.846162 -1.164823 -0.031794 -0.011365 -0.197219 -0.000000 0.000000 0.000000 0.000000 0.000000 0.000000 0.000000 
3.396303 17.040123 1.703159 9.851261 29.532216 24.617208 4.722805 -4.947051 -6.095231 0.657413 -5.532388 -3.723978 -6.202720 -5.555211 1.383857 6.837026 -17.069799 -8.824979 -4.148596 -0.305335 -0.313668 0.000000 0.000000 0.000000 3.223056 4.328042 1.019502 -41.217636 -11.346614 2.205051 -0.235603 -88.747378 -0.061225 9.196005 1.463058 0.092103 -0.237696 0.387395 -0.000000 0.000000 0.000000 0.000000 0.000000 0.000000 0.000000 15.725448 -14.626475 -0.470266 66.011619 -0.496578 16.888265 0.355641 80.587720 0.014788 3.808915 -1.182729 -0.032084 -0.007812 -0.195726 -0.000000 0.000000 0.000000 0.000000 0.000000 0.000000 0.000000 
3.489286 17.018978 1.829312 10.077097 29.546721 25.004486 5.079494 -4.975180 -6.563043 0.761054 -5.608708 -3.820973 -6.138039 -5.637972 1.397802 6.581823 -17.243916 -8.969720 -4.187805 -0.307444 -0.356229 0.000000 0.000000 0.000000 2.754826 4.324513 1.036919 -41.847805 -11.226871 2.525521 -0.256580 -88.790768 -0.059899 9.075244 1.357183 0.082409 -0.237291 0.388262 -0.000000 0.000000 0.000000 0.000000 0.000000 0.000000 0.000000 15.689664 -14.783259 -0.438967 65.614432 -0.624490 16.423781 0.372272 80.375736 0.014352 3.734171 -1.216605 -0.032572 -0.003458 -0.193904 -0.000000 0.000000 0.000000 0.000000 0.000000 0.000000 0.000000 
3.584292 17.002790 1.956571 10.231667 29.530672 25.388439 5.499134 -4.972300 -7.064496 0.875762 -5.662941 -3.929408 -6.076353 -5.698900 1.400218 6.326993 -17.349353 -9.095269 -4.235279 -0.310469 -0.394482 0.000000 0.000000 0.000000 2.238601 4.335212 1.058243 -42.588948 -11.106992 2.912384 -0.285650 -88.725269 -0.058159 8.926689 1.193105 0.068020 -0.236550 0.389345 -0.000000 0.000000 0.000000 0.000000 0.000000 0.000000 0.000000 15.680044 -14.858019 -0.404997 65.175953 -0.757360 15.906818 0.393051 80.094316 0.013799 3.637802 -1.284073 -0.033862 0.001170 -0.191575 -0.000000 0.000000 0.000000 0.000000 0.000000 0.000000 0.000000 
3.679035 16.991744 2.083924 10.324969 29.471257 25.733365 5.945779 -4.941346 -7.545676 0.992830 -5.693257 -4.035752 -6.017998 -5.735577 1.397821 6.093461 -17.408545 -9.207188 -4.287814 -0.314016 -0.430141 0.000000 0.000000 0.000000 1.709307 4.375252 1.077859 -43.445514 -11.018949 3.359993 -0.323831 -88.516402 -0.056099 8.757875 0.979927 0.050026 -0.235347 0.390543 -0.000000 0.000000 0.000000 0.000000 0.000000 0.000000 0.000000 15.714441 -14.880346 -0.368326 64.714893 -0.838669 15.370410 0.420103 79.711773 0.013078 3.508124 -1.383605 -0.035653 0.006286 -0.188711 0.000000 0.000000 0.000000 0.000000 0.000000 0.000000 0.000000 
3.771989 16.985702 2.211120 10.362699 29.364153 26.024130 6.394769 -4.887767 -7.984172 1.106745 -5.702055 -4.135421 -5.962795 -5.750355 1.388850 5.892121 -17.412539 -9.298490 -4.343994 -0.318028 -0.460963 0.000000 0.000000 0.000000 1.205006 4.434160 1.092817 -44.434350 -10.935546 3.854435 -0.371674 -88.152436 -0.053759 8.571219 0.727709 0.029718 -0.233475 0.391610 -0.000000 0.000000 0.000000 0.000000 0.000000 0.000000 0.000000 15.795954 -14.844667 -0.330343 64.250488 -0.868818 14.820614 0.453224 79.226373 0.012217 3.352292 -1.523593 -0.038148 0.011647 -0.185203 0.000000 0.000000 0.000000 0.000000 0.000000 0.000000 0.000000 
3.861251 16.984221 2.337692 10.356953 29.207524 26.242504 6.814711 -4.819156 -8.349873 1.210234 -5.692441 -4.221643 -5.911990 -5.746158 1.372967 5.736831 -17.360801 -9.364908 -4.402126 -0.322377 -0.485390 0.000000 0.000000 0.000000 0.763078 4.500493 1.100703 -45.556035 -10.838508 4.380163 -0.428973 -87.622651 -0.051214 8.371110 0.452517 0.008386 -0.230754 0.392207 -0.000000 0.000000 0.000000 0.000000 0.000000 0.000000 0.000000 15.931813 -14.755755 -0.292073 63.805938 -0.839667 14.268642 0.492190 78.637228 0.011215 3.176307 -1.707803 -0.041248 0.017055 -0.181018 0.000000 0.000000 0.000000 0.000000 0.000000 0.000000 0.000000 
3.945051 16.986793 2.463218 10.313689 29.004148 26.372260 7.183191 -4.742936 -8.618291 1.297648 -5.668027 -4.289324 -5.868672 -5.726438 1.348023 5.639389 -17.249237 -9.400891 -4.461480 -0.327029 -0.501432 0.000000 0.000000 0.000000 0.413337 4.555842 1.101109 -46.796979 -10.702833 4.917544 -0.494650 -86.927628 -0.048548 8.161606 0.174152 -0.012077 -0.227040 0.391924 -0.000000 0.000000 0.000000 0.000000 0.000000 0.000000 0.000000 16.128577 -14.614285 -0.254135 63.402810 -0.752761 13.719641 0.536119 77.954257 0.010119 2.987747 -1.937671 -0.044752 0.022286 -0.176191 0.000000 0.000000 0.000000 0.000000 0.000000 0.000000 0.000000 
4.021783 16.992598 2.587496 10.244032 28.757495 26.410377 7.478424 -4.666481 -8.778062 1.364456 -5.632773 -4.333849 -5.833926 -5.694986 1.321024 5.608932 -17.098607 -9.412481 -4.518025 -0.331569 -0.510244 0.000000 0.000000 0.000000 0.170148 4.607637 1.093071 -48.125704 -10.542446 5.460930 -0.567357 -86.060285 -0.045871 7.947962 -0.084453 -0.029979 -0.222387 0.390387 -0.000000 0.000000 0.000000 0.000000 0.000000 0.000000 0.000000 16.384239 -14.446194 -0.218505 63.066884 -0.581214 13.200862 0.584929 77.175176 0.008936 2.789664 -2.202742 -0.048159 0.027299 -0.170866 0.000000 0.000000 0.000000 0.000000 0.000000 0.000000 0.000000 
4.090781 17.000698 2.710473 10.164145 28.475200 26.355574 7.685102 -4.599096 -8.823884 1.407040 -5.593124 -4.355966 -5.810809 -5.658365 1.283910 5.645284 -16.892020 -9.389660 -4.572926 -0.336188 -0.508571 0.000000 0.000000 0.000000 0.041957 4.621876 1.080846 -49.508820 -10.303075 5.985350 -0.644066 -85.054372 -0.043245 7.730968 -0.298972 -0.043721 -0.216712 0.387117 -0.000000 0.000000 0.000000 0.000000 0.000000 0.000000 0.000000 16.695087 -14.236496 -0.186020 62.808565 -0.360374 12.708356 0.635389 76.342120 0.007709 2.587431 -2.507108 -0.051371 0.031866 -0.165140 0.000000 0.000000 0.000000 0.000000 0.000000 0.000000 0.000000 
4.151161 17.010397 2.832092 10.070265 28.165437 26.216533 7.804326 -4.542585 -8.764010 1.426055 -5.550924 -4.354621 -5.800636 -5.618282 1.247127 5.750019 -16.661022 -9.345168 -4.621399 -0.340367 -0.499644 0.000000 0.000000 0.000000 0.018514 4.619446 1.065295 -50.895432 -10.024243 6.497882 -0.722896 -83.911349 -0.040764 7.514344 -0.447014 -0.052205 -0.210299 0.381901 -0.000000 0.000000 0.000000 0.000000 0.000000 0.000000 0.000000 17.049248 -14.018347 -0.158518 62.652820 -0.058329 12.270491 0.687539 75.454299 0.006472 2.382981 -2.823550 -0.053785 0.036021 -0.159386 0.000000 0.000000 0.000000 0.000000 0.000000 0.000000 0.000000 
